<svg width="60" height="53" viewBox="0 0 60 53" fill="none" xmlns="http://www.w3.org/2000/svg">
<path fill-rule="evenodd" clip-rule="evenodd" d="M30.3098 23.6382C29.0312 23.6382 27.9657 24.5729 27.9657 25.6946C27.9657 26.8163 29.0312 27.751 30.3098 27.751C31.5884 27.751 32.6538 26.8163 32.6538 25.6946C32.6538 24.5729 31.5884 23.6382 30.3098 23.6382ZM30.3098 7C18.5894 7 9 15.4126 9 25.6946C9 35.9766 18.5894 44.3892 30.3098 44.3892C42.0301 44.3892 51.6195 35.9766 51.6195 25.6946C51.6195 15.4126 42.0301 7 30.3098 7ZM34.9979 29.8074L17.5239 36.9113L25.6216 21.5818L43.0956 14.4778L34.9979 29.8074Z" fill="#F8AEC3"/>
</svg>
