<svg width="33" height="32" viewBox="0 0 33 32" fill="none" xmlns="http://www.w3.org/2000/svg">
<g clip-path="url(#clip0)">
<path d="M5.14411 15.6864C5.14411 16.0667 5.45244 16.3751 5.83234 16.3746L25.7471 16.3746L22.0235 20.0981C21.7529 20.3687 21.7529 20.8079 22.0235 21.0785C22.2941 21.3491 22.7333 21.3491 23.0039 21.0785L27.9059 16.1766C28.0358 16.0467 28.1108 15.8707 28.1108 15.6864C28.1108 15.502 28.0358 15.3261 27.9059 15.1962L23.0039 10.2942C22.7333 10.0236 22.2941 10.0236 22.0235 10.2942C21.7529 10.5648 21.7529 11.004 22.0235 11.2746L25.7471 14.9981L5.83234 14.9981C5.45195 14.9981 5.14361 15.3065 5.14411 15.6864Z" fill="#008BE6"/>
</g>
<defs>
<clipPath id="clip0">
<rect width="22.1838" height="22.1838" fill="white" transform="translate(16.6274) rotate(45)"/>
</clipPath>
</defs>
</svg>
