<svg width="33" height="32" viewBox="0 0 33 32" fill="none" xmlns="http://www.w3.org/2000/svg">
<g clip-path="url(#clip0)">
<path d="M28.1108 15.6864C28.1108 16.0667 27.8024 16.3751 27.4225 16.3746L7.50783 16.3746L11.2314 20.0981C11.5019 20.3687 11.5019 20.8079 11.2314 21.0785C10.9608 21.3491 10.5216 21.3491 10.251 21.0785L5.34901 16.1766C5.2191 16.0467 5.1441 15.8707 5.14411 15.6864C5.1441 15.502 5.2191 15.3261 5.34901 15.1962L10.251 10.2942C10.5216 10.0236 10.9608 10.0236 11.2314 10.2942C11.5019 10.5648 11.5019 11.004 11.2314 11.2746L7.50783 14.9981L27.4225 14.9981C27.8029 14.9981 28.1113 15.3065 28.1108 15.6864Z" fill="#008BE6"/>
</g>
<defs>
<clipPath id="clip0">
<rect width="22.1838" height="22.1838" fill="white" transform="matrix(-0.707107 0.707107 0.707107 0.707107 16.6274 0)"/>
</clipPath>
</defs>
</svg>
