<svg width="125" height="125" viewBox="0 0 125 125" fill="none" xmlns="http://www.w3.org/2000/svg">
<path d="M113.04 21.4053C113.126 22.2186 113.725 22.5611 114.218 22.0688C114.71 21.5765 114.367 20.9772 113.554 20.8916C113.019 20.8274 112.976 20.8702 113.04 21.4053Z" fill="#32435F"/>
<path d="M98.7637 24.4023C94.6327 26.2216 92.5565 27.5487 90.2877 29.8389C89.196 30.9305 88.4255 31.9365 87.976 32.8783C87.3125 34.2054 87.2697 34.4194 87.3339 36.1103C87.3981 37.6086 87.5265 38.1009 88.1044 39.1925L88.768 40.4768L87.9546 41.2901C87.4623 41.761 86.9914 42.0393 86.756 41.9965C86.1781 41.8894 85.7286 40.8192 85.6858 39.428C85.643 38.0153 85.0008 36.731 84.1233 36.1959C83.3313 35.7251 83.0531 35.9605 82.0899 37.9083C81.1909 39.7062 81.0839 40.8406 81.7688 41.6968C82.2611 42.3175 83.2457 42.4459 83.6738 41.9322C84.0805 41.44 84.3373 41.5256 85.1935 42.4674C85.8998 43.2379 86.0925 43.3235 86.9914 43.3235C87.8262 43.3235 88.1472 43.1951 88.9178 42.553C89.5813 42.0179 89.988 41.8252 90.2663 41.9322C90.6729 42.0607 91.3793 41.5898 91.3793 41.1831C91.3793 40.6908 90.6301 39.4922 90.2663 39.4066C89.6241 39.2353 88.9606 37.416 88.9392 35.8321C88.9178 34.6763 89.0248 34.2482 89.5599 33.2636C90.5659 31.4014 93.0702 28.9614 95.7243 27.2062C98.8707 25.1514 99.47 24.7876 100.54 24.2739C102.509 23.3107 100.99 23.4177 98.7637 24.4023ZM84.1019 38.3578C84.1019 38.8287 82.839 40.648 82.6678 40.4554C82.5822 40.3912 82.6892 40.1557 82.8818 39.9417C83.0959 39.7276 83.2457 39.428 83.2457 39.2995C83.2457 38.9143 83.7166 37.9725 83.9306 37.9725C84.0163 37.9725 84.1019 38.1437 84.1019 38.3578Z" fill="#32435F"/>
<path d="M101.782 24.4673C101.461 24.9596 100.99 25.7301 100.69 26.201C100.391 26.6505 99.406 27.6351 98.507 28.3842C95.3392 30.9527 94.7399 31.7875 95.6602 32.3654C96.0669 32.6222 96.0883 32.8577 96.0883 37.5238C96.0883 42.4467 96.2168 43.5383 96.8375 43.5383C97.0087 43.5383 97.1585 43.6239 97.1585 43.7524C97.1585 44.2447 98.0361 44.8226 98.7638 44.8226C99.7698 44.8226 100.048 44.6513 104.564 41.612C108.117 39.2147 108.46 39.0435 109.166 39.1505C110.172 39.3217 110.386 39.0221 110.472 37.3739C110.557 35.7472 110.921 35.5546 111.093 37.0315C111.392 39.5144 112.099 40.4775 113.126 39.7926C113.747 39.3859 113.768 39.1933 113.19 38.808C112.805 38.5298 112.719 38.1231 112.462 34.5486C112.291 32.3654 112.141 29.6471 112.141 28.4912C112.141 26.2866 111.949 25.5589 111.328 25.5589C110.429 25.5803 110.408 25.6873 110.643 30.1393C110.857 33.9065 110.836 34.4844 110.515 35.469C109.894 37.4167 109.723 37.3311 109.38 34.9767C109.252 34.2061 109.059 33.0075 108.931 32.3012C108.802 31.5948 108.567 29.8183 108.438 28.3628C108.16 25.5803 107.946 25.1094 107.111 25.4304C106.769 25.5589 106.748 25.7729 106.876 27.7635C106.962 28.9621 107.261 31.552 107.561 33.5426C107.882 35.5118 108.075 37.2669 108.01 37.4167C107.946 37.588 107.604 37.7806 107.24 37.8662C106.876 37.9519 106.512 38.1445 106.405 38.3157C106.17 38.7652 99.513 43.3243 99.1063 43.3243C98.6782 43.3243 98.0147 41.5691 98.0147 40.4133C98.0147 39.6642 98.2073 39.3859 99.5772 37.9733C101.011 36.4536 102.659 35.3405 105.399 33.9707C106.491 33.4356 106.576 32.7507 105.57 32.665C105.121 32.6222 104.479 32.8149 103.644 33.2858C101.033 34.7198 99.8126 35.4262 99.2347 35.8757C98.3572 36.582 98.1431 36.1753 98.0147 33.7138C97.8863 31.1667 97.9291 30.9741 98.4856 30.7815C98.721 30.7173 99.5558 29.9681 100.348 29.1334C102.231 27.1 103.216 26.201 103.516 26.201C103.815 26.201 104.286 24.8739 104.179 24.2318C104.136 23.8251 103.965 23.7181 103.216 23.6753C102.381 23.6111 102.274 23.6539 101.782 24.4673Z" fill="#32435F"/>
<path d="M117.642 25.4537C117.064 25.7534 116.122 26.1386 115.545 26.3313C114.539 26.6737 114.496 26.7165 114.496 27.5085C114.496 28.7927 114.86 29.3706 115.652 29.3706C116.914 29.3706 120.66 30.0128 121.431 30.3766C122.415 30.8475 123.486 32.0676 123.486 32.7097C123.486 33.202 122.608 34.5718 121.859 35.214C121.195 35.8133 119.205 36.9049 118.841 36.9049C118.563 36.9049 118.584 36.8193 118.969 36.3912C119.697 35.6206 119.355 35.321 118.349 35.8347C116.893 36.5624 116.08 38.2105 117 38.553C117.856 38.8741 121.045 37.5256 122.929 36.0273C124.47 34.8073 124.984 34.0153 124.984 32.8809C124.984 32.0676 124.855 31.8321 123.871 30.7833C122.501 29.3278 121.324 28.7713 119.098 28.4931C118.156 28.3861 117.3 28.2148 117.171 28.1078C116.936 27.8724 118.456 26.2456 119.162 25.9674C119.761 25.7319 119.718 25.047 119.098 24.9828C118.862 24.94 118.199 25.154 117.642 25.4537Z" fill="#32435F"/>
<path d="M52.8734 26.2439C52.7878 26.5222 52.638 27.1215 52.5524 27.5924C52.2099 29.4546 48.3143 36.3253 46.7947 37.7166L46.2596 38.2302L46.0241 37.0744C45.4462 34.2063 45.1037 30.7174 45.2108 28.9409C45.3178 27.2927 45.275 27.0573 44.9111 26.7148C44.5044 26.351 44.4616 26.351 44.1191 26.7148C43.7981 27.0145 43.7553 27.5282 43.7553 30.2251C43.7553 31.9588 43.8837 34.1849 44.0335 35.1909C44.1834 36.1969 44.4188 37.7166 44.5472 38.5513C44.7613 40.0282 44.7613 40.1352 44.269 40.863C43.9907 41.2696 43.6697 41.6121 43.584 41.6121C43.477 41.6121 42.8991 41.3767 42.2998 41.0984C41.6791 40.7987 40.3734 40.1994 39.3674 39.7285C38.3614 39.2791 37.3768 38.7011 37.1842 38.4657C36.7775 38.0162 35.6431 38.0162 35.3649 38.4657C35.2792 38.5941 35.215 39.5787 35.1936 40.6489C35.1936 42.083 35.0652 42.7893 34.7655 43.41L34.3589 44.2448L33.9522 43.7311C33.6311 43.3244 33.5669 43.0462 33.6953 42.3612C33.781 41.8904 33.888 41.2054 33.9522 40.863C33.995 40.4991 33.9522 39.9426 33.8238 39.6215C33.6311 39.1078 33.4813 39.0222 32.9034 39.0864C32.0686 39.172 31.7048 39.7713 31.5121 41.4409C31.4479 42.0616 31.2339 42.7893 31.0626 43.0676L30.7416 43.5599L29.5858 42.4255C28.9436 41.8047 28.1945 40.863 27.9376 40.3279C27.4239 39.2362 26.7604 38.9794 26.0755 39.6001C25.733 39.8998 25.6902 40.1566 25.7972 40.8844C26.0541 42.6181 24.8554 44.9083 23.7852 44.7799C23.3572 44.7371 23.1859 44.5873 23.1431 44.1806C23.0147 43.0248 22.8649 42.6823 22.501 42.6823C21.8803 42.6823 21.602 42.2328 21.602 41.291C21.602 40.8201 21.4522 40.1994 21.2596 39.9212C20.9599 39.4931 20.7673 39.4503 20.0609 39.5359C18.5412 39.7499 17.0857 41.7191 16.6363 44.1806C16.4436 45.3792 16.358 45.5077 15.6303 45.8715C15.2022 46.107 13.8323 46.9417 12.6123 47.7765C7.51811 51.1583 5.78438 52.0573 4.09346 52.2285C2.98044 52.357 2.78781 52.3142 2.2313 51.8219C1.63198 51.3296 1.61058 51.2011 1.61058 49.7243C1.63198 48.4828 1.80322 47.6267 2.42394 45.7859C3.3015 43.2388 5.61315 38.2731 7.56092 34.8056C9.44448 31.4451 12.5481 27.5068 13.0618 27.8278C13.1902 27.8921 13.2544 28.4486 13.2116 29.0479C13.1474 30.0325 13.1902 30.1609 13.5755 30.1609C14.0892 30.1609 14.453 29.4546 14.6457 27.9991C14.8811 26.0941 13.8751 25.666 12.0558 26.8861C10.1936 28.1489 7.4539 32.0659 4.73558 37.3313C1.86743 42.9178 0.262121 47.1558 0.0480799 49.6815C-0.0589406 51.0727 -0.0161324 51.3082 0.476162 52.1643C1.22531 53.4058 2.33832 53.8981 4.00784 53.684C5.84859 53.47 11.328 50.3878 15.3734 47.3484L16.3366 46.6207L17.3212 47.6481C18.1774 48.5256 18.4342 48.6755 19.1619 48.6755C20.2322 48.6755 21.2167 48.0761 21.9231 46.9845C22.4368 46.214 22.5652 46.1498 23.2073 46.2568C23.614 46.321 24.1705 46.321 24.4702 46.2354C25.3049 46.0214 26.4822 44.8869 26.953 43.7953L27.3811 42.8321L27.9162 43.3244C28.4941 43.8809 28.5798 44.3946 28.2159 45.101C28.0018 45.4862 28.0447 45.6147 28.5584 46.0428C29.2861 46.6635 29.7142 46.5565 31.1054 45.4006C31.9188 44.7157 32.1756 44.6087 32.3255 44.8441C32.4325 45.0154 32.5181 45.208 32.5181 45.2936C32.5181 45.3792 32.7536 45.6147 33.0532 45.8073C33.781 46.2782 34.8298 45.9143 35.8143 44.8227C36.4137 44.1592 36.5849 43.7739 36.6919 42.7465C36.7561 42.0616 36.906 41.291 37.013 41.0342L37.227 40.5419L38.233 40.9486C39.6457 41.5051 44.5472 43.7739 44.8683 44.0094C44.9967 44.1164 45.2108 45.0154 45.3606 46.0214C45.5746 47.434 45.7244 47.9049 46.0669 48.1404C46.6448 48.547 46.7518 48.547 47.1371 48.1618C47.4368 47.8621 47.3726 46.8133 46.9659 45.5077C46.7518 44.8869 47.0301 44.9083 48.4 45.5933C49.834 46.321 51.6748 48.1832 52.2099 49.446C53.0447 51.3724 52.1885 53.6626 49.6842 56.2739C48.2073 57.8364 44.6114 60.8116 43.1131 61.732C42.6423 62.0102 41.251 62.9734 40.0096 63.8724C38.0618 65.3065 36.007 66.6977 30.3563 70.4006C29.65 70.8715 28.9008 71.3424 28.7082 71.4709C28.5155 71.5779 27.8306 72.0274 27.1671 72.4554C26.525 72.8835 24.5986 74.0393 22.8863 75.0025C21.1739 75.9871 19.483 77.0145 19.1191 77.2928C18.7553 77.5496 18.3914 77.7851 18.3058 77.7851C18.2202 77.7851 17.7065 78.1061 17.15 78.47C16.5935 78.8553 15.9941 79.262 15.7801 79.3904C15.5875 79.4974 15.0096 79.9041 14.4959 80.2679C14.0036 80.6318 13.233 81.1455 12.8263 81.4452C8.54551 84.3989 5.16366 87.845 3.77239 90.6061C2.93763 92.2757 2.87342 92.5325 2.87342 94.1378C2.87342 96.1712 3.36572 97.4127 5.05664 99.5103C5.99842 100.687 6.36229 100.923 9.35887 102.464C11.1782 103.384 12.6979 104.091 12.7621 104.027C12.9762 103.812 12.4411 103.363 11.6277 103.063C8.33147 101.865 5.01383 98.4186 4.47873 95.5933C3.96503 92.8536 5.42051 90.0496 9.20904 86.4109C11.8417 83.8852 18.4342 79.1977 24.0635 75.8587C25.1337 75.238 26.3537 74.4888 26.7818 74.2106C27.2313 73.9537 27.638 73.7183 27.7022 73.7183C28.0875 73.7183 37.7193 67.3399 41.7647 64.4075C42.8991 63.5941 44.6114 62.3313 45.5746 61.6464C50.6046 58.0077 54.1149 53.4914 54.1363 50.666C54.1363 49.5102 53.1517 47.7551 51.6748 46.3424C50.9256 45.6147 50.4548 45.0368 50.6046 45.0368C51.2039 45.0368 53.7082 45.9143 54.9068 46.5565C56.7476 47.5196 57.4753 48.1404 58.1174 49.2106C58.7381 50.3022 59.1876 50.4306 59.4873 49.6172C59.7227 49.0393 59.3803 48.1404 58.7595 47.6267C58.2887 47.22 58.3315 47.0059 58.9094 46.9203C59.2732 46.8775 59.4017 46.6849 59.4445 46.1712C59.5515 45.1652 59.1234 43.8167 58.6739 43.7097C58.2458 43.5813 57.4539 41.6763 57.2185 40.178C56.983 38.6797 55.8272 37.845 55.4419 38.8938C55.1637 39.6001 55.5275 41.077 56.6191 43.8381C57.1542 45.1224 57.5181 46.214 57.4539 46.2782C57.3897 46.3424 57.0686 46.2568 56.7476 46.0642C54.5429 44.7585 53.0232 44.202 48.1003 42.8963C46.9659 42.5967 46.7733 42.4255 46.5592 41.5479C46.388 40.8416 46.6234 40.3493 47.9291 38.8296C50.9899 35.2551 54.971 27.3784 54.3503 26.1797C54.0292 25.6018 53.1089 25.6446 52.8734 26.2439ZM20.1037 41.9546C20.1037 42.6823 20.4676 43.3244 20.8957 43.3244C21.1739 43.3244 21.2167 43.5171 21.1311 44.3946C21.0027 45.5719 20.2964 46.8133 19.5044 47.1558C19.0977 47.3484 18.9265 47.3056 18.4556 46.8347C17.9419 46.321 17.9205 46.1926 18.0489 44.9725C18.2844 42.6395 20.1037 39.9854 20.1037 41.9546Z" fill="#32435F"/>
<path d="M76.525 29.4539C76.3537 29.7108 76.2681 30.0104 76.3537 30.1389C76.5892 30.5241 77.3383 36.8812 77.1671 37.0524C77.0815 37.1594 76.2039 36.6243 75.1551 35.8538C74.513 35.3615 74.4702 35.2331 74.4702 33.9916C74.4702 32.5361 74.2133 32.0866 73.2716 31.8512C72.0301 31.5301 69.3332 32.5789 69.3332 33.3709C69.3332 33.9488 69.7399 34.3127 71.2596 35.1474C71.9017 35.5113 72.4582 35.9394 72.501 36.0892C72.5866 36.5601 71.7305 37.5019 70.7887 37.9942C69.7185 38.5507 69.5687 38.4223 68.477 36.239C67.5353 34.3983 67.15 34.12 66.3366 34.7194C65.6517 35.2331 64.2819 37.9086 63.8538 39.6423C63.4685 41.2048 63.6611 42.1894 64.5815 43.1526C65.9728 44.6723 67.4711 44.1372 68.7125 41.7185C69.162 40.8409 69.6329 40.1988 69.8469 40.156C70.168 40.0918 70.1252 40.2844 69.5258 41.3974C68.8623 42.6603 68.6483 43.8161 69.0121 44.3726C69.0764 44.501 69.5473 44.8221 70.0395 45.0575C70.7673 45.4428 71.1526 45.4856 72.3298 45.3786C73.8923 45.2502 75.733 44.6723 77.0387 43.9445C77.852 43.495 77.8948 43.4736 78.3015 43.8375C78.644 44.1586 78.7724 44.1586 79.1791 43.9231C79.5858 43.6877 79.6286 43.5164 79.5215 42.5747C79.4787 41.9753 79.2647 40.8195 79.0721 40.0062C78.5584 37.7587 78.751 37.4163 80.9984 36.7527C81.662 36.5601 82.0686 35.6183 81.4907 35.6183C80.9128 35.6183 79.4787 36.0892 79.1363 36.4103C78.9436 36.5815 78.751 36.6243 78.6868 36.5387C78.6226 36.4317 78.4513 35.2973 78.3229 34.013C78.1945 32.7074 78.0447 31.1449 77.9805 30.5241C77.8948 29.7322 77.745 29.3469 77.4668 29.1971C76.9317 28.8974 76.8888 28.9188 76.525 29.4539ZM73.1431 33.8418C73.2288 34.4197 72.6508 34.5053 72.0087 34.0558C71.495 33.6706 71.7947 33.2211 72.501 33.3067C72.9077 33.3495 73.1003 33.5207 73.1431 33.8418ZM67.8991 37.4591C68.5627 38.5507 68.6055 38.8289 68.1774 38.8289C68.0062 38.8289 67.7921 39.1286 67.7065 39.5139C67.5139 40.4342 66.5293 42.275 66.144 42.4248C65.5875 42.6389 65.2236 41.8041 65.3092 40.5413C65.3949 39.2998 66.6149 36.4745 67.0644 36.4745C67.1928 36.4745 67.5567 36.924 67.8991 37.4591ZM75.4976 37.5447C76.3751 38.1654 76.3966 38.2296 76.3966 39.4283C76.3966 40.0918 76.4822 40.9908 76.6106 41.376C76.7818 41.9753 76.739 42.1894 76.4822 42.489C76.0113 43.0027 73.7853 43.7519 72.2014 43.9017C70.4676 44.0729 70.0824 43.7091 70.275 42.168C70.3606 41.5687 70.4248 40.8409 70.4676 40.5413C70.489 40.2202 70.8101 39.7921 71.2596 39.4497C71.6663 39.1286 72.4368 38.4437 72.9719 37.9086C73.507 37.3735 74.0849 36.924 74.2775 36.924C74.4702 36.9026 75.0267 37.2022 75.4976 37.5447ZM77.8948 40.5413C77.8948 40.7767 77.8092 40.9694 77.6808 40.9694C77.5738 40.9694 77.4668 40.7767 77.4668 40.5413C77.4668 40.3058 77.5738 40.1132 77.6808 40.1132C77.8092 40.1132 77.8948 40.3058 77.8948 40.5413Z" fill="#32435F"/>
<path d="M115.01 32.6654C114.817 32.9651 114.903 35.2339 115.117 35.4479C115.181 35.5336 115.566 35.6834 115.951 35.7476C116.486 35.8546 116.658 35.8118 116.765 35.5122C116.936 35.1055 116.486 33.1149 116.144 32.6654C115.887 32.3443 115.202 32.3229 115.01 32.6654Z" fill="#32435F"/>
<path d="M61.4137 33.6506C60.5361 34.1215 59.5729 35.4057 59.2947 36.4759C59.1876 36.8826 59.1234 38.4665 59.1662 40.0076C59.2305 43.154 59.6799 44.6309 60.6431 45.0804C61.8418 45.6155 62.12 44.4597 61.4993 41.7199C61.3067 40.8852 61.0926 39.4297 61.0498 38.4665C60.9642 36.904 61.007 36.6044 61.4137 35.9408C61.6705 35.5127 62.12 35.0205 62.3983 34.8492C62.8478 34.5496 62.9976 34.5496 63.9822 34.8706C65.1594 35.2559 65.5019 35.1703 65.138 34.6138C64.3888 33.4365 62.6337 32.9871 61.4137 33.6506Z" fill="#32435F"/>
<path d="M54.8854 35.6397C54.4573 36.3032 55.4205 37.3306 56.4693 37.3306C56.8117 37.3306 57.5609 36.7099 57.5609 36.4317C57.5609 36.2176 55.87 35.4043 55.4205 35.4043C55.2064 35.4043 54.9496 35.5113 54.8854 35.6397Z" fill="#32435F"/>
</svg>
